<svg xmlns="http://www.w3.org/2000/svg" xmlns:xlink="http://www.w3.org/1999/xlink" id="Layer_1" width="549.34" height="406.56" viewBox="0 0 549.34 406.56"><defs><style>.cls-1{stroke:#ff9623;stroke-width:1.41px;}.cls-1,.cls-2,.cls-3,.cls-4,.cls-5,.cls-6,.cls-7,.cls-8{fill:none;}.cls-1,.cls-2,.cls-3,.cls-4,.cls-7,.cls-8{stroke-linecap:round;stroke-linejoin:round;}.cls-2{stroke:#853534;}.cls-2,.cls-3,.cls-4,.cls-7,.cls-8{stroke-width:1.12px;}.cls-3{stroke:#abdbdd;}.cls-4{stroke:#d46050;}.cls-9{clip-path:url(#clippath);}.cls-5,.cls-10,.cls-11,.cls-12,.cls-13,.cls-14,.cls-15,.cls-16,.cls-17,.cls-18,.cls-19,.cls-20,.cls-21,.cls-22,.cls-23,.cls-24{stroke-width:0px;}.cls-6{stroke:#fa6e28;stroke-miterlimit:10;}.cls-10{fill:#fa6e28;}.cls-11{fill:#5f537a;}.cls-12{fill:#39304a;}.cls-13{fill:#853534;}.cls-14{fill:#1c1b25;}.cls-15{fill:#1c1b26;}.cls-16{fill:#140432;}.cls-17{fill:#d46050;}.cls-18{fill:#b86248;}.cls-19{fill:#ff9623;}.cls-20{fill:#fff;}.cls-21{fill:#f5c3a2;}.cls-22{fill:#fc9bac;}.cls-23{fill:#f33d4f;}.cls-24{fill:#e89f7d;}.cls-7{stroke:#140432;}.cls-8{stroke:#fff;}</style><clipPath id="clippath"><rect class="cls-5" x="257.84" width="167.68" height="152.64"></rect></clipPath></defs><path class="cls-15" d="M288.46,274.83s-15.15-36.06,25.48-72.09c2.72,9.8,12.18,73.46-25.48,72.09Z"></path><path class="cls-1" d="M274.83,331.06c6.31-33.87,15.96-66.98,28.73-98.54"></path><path class="cls-15" d="M267.45,281.77s17.34-10.31-16.74-47.35c-2.43,6.28-12.16,39.22,16.74,47.35Z"></path><path class="cls-1" d="M276.4,318.7c-4.14-22.25-10.48-43.99-18.87-64.72"></path><polygon class="cls-19" points="291.02 406.56 261.98 406.56 254.75 306.8 298.25 306.8 291.02 406.56"></polygon><g class="cls-9"><path class="cls-23" d="M340.14,395.35h23.87s2.85-7.56,4.85-12.08c4.46-10.06,6.42,12.08,6.42,12.08h3.6s-2.74-29.37-3.27-35.32l-19.94,4.26c1.31,13.2-16.28,22.04-33.93,28.25-1.46.51-1.1,2.68.45,2.69l17.96.13Z"></path><path class="cls-16" d="M361.65,159.74c1.84,16.57,2.3,15.46,3.79,34.1,4.22,52.83,7.59,126.48,10.87,173.63l-24.14,2.69c-16.67-65.34-27.95-156.91-22.93-211.41l32.41.99Z"></path><path class="cls-23" d="M447.79,395.35h-14.07c-2.4,0-4.5-1.67-5.06-4.01-.62-2.61-1.47-5.95-2.22-8.22-3.47-10.54-1.06,12.23-1.06,12.23h-3.2s-5.02-22.78-5.72-28.73l23.72-.1c4.45,13.99,7.91,19.85,21.43,25.75,1.97.86,1.38,2.93,0,2.93l-13.82.15Z"></path><path class="cls-13" d="M298.59,126.37c-4.77-2.85-7.99-3.08-12.85-2.86,0,0-.65-1.37,1.07-2.06,1.72-.69,9.94-.95,9.94-.95l1.84,5.87Z"></path><path class="cls-16" d="M392.77,160.58c16.48,28.81,42.93,179.9,47.4,205.95l-27.63.1c-9.08-30.37-18.43-59.05-28.94-87.41-15.92-42.97-25.26-82.7-33.76-121.55l42.94,2.92Z"></path><path class="cls-22" d="M329.24,158.75c.58-5.86.78-15.06,1.33-22.34,1.54-20.55,3.78-45.11,7.11-60.6,20.51-10.71,36-14.27,55.82-16.4l-2.6,16.48c-4.65,29.4-9.4,50.37,1.87,84.69l-63.53-1.83Z"></path><path class="cls-22" d="M337.68,75.8c-5.32,3.06-11.91,11.15-15.34,24.35-1.7,6.56-3.23,24.94-3.23,24.94l16.28,11.27,2.29-60.55Z"></path><path class="cls-15" d="M370.69,47.06s11.16,5.61,11.71-2.2c.59-8.41-6.49-25.34-9.03-28.89-4.06-4.4-14,24.75-2.68,31.09Z"></path><polygon class="cls-18" points="371.03 68.72 362.5 69.81 362.5 44.2 371.03 44.2 371.03 68.72"></polygon><path class="cls-13" d="M370.69,46.2c-1.74,2.69-7.25,6.66-8.19,5.93v6.77c8.06-3.2,8.19-12.7,8.19-12.7Z"></path><path class="cls-18" d="M360.04,53.52c7.43,2.07,15.75-8.4,15.9-22.21.09-7.88-1.51-14.38-4.24-16.45-4.9-3.73-14.81-.5-14.81-.5-1.59,6.59-2.43,37.6,3.15,39.16Z"></path><path class="cls-16" d="M359.08,28.88l-3.85.22s3.72-3.27,3.85-.22Z"></path><ellipse class="cls-16" cx="357.22" cy="31.67" rx=".66" ry="1.03"></ellipse><path class="cls-16" d="M363.27,28.88l5.22.22s-5.04-3.27-5.22-.22Z"></path><path class="cls-16" d="M364.47,31.67c0,.57.3,1.03.66,1.03s.66-.46.66-1.03-.3-1.03-.66-1.03-.66.46-.66,1.03Z"></path><path class="cls-2" d="M360.34,29.1c.7,2.18.72,4.48.06,6.66-.11.36-.2.73-.2,1.1,0,1,.8,1.22,1.23,1.22"></path><path class="cls-2" d="M360.33,42.76c1.88-.2,3.6-1.5,4.33-3.24"></path><path class="cls-18" d="M373.52,30.54c.16-1.11.63-2.16,1.32-2.99.56-.66,1.39-1.2,2.17-.91.6.22.98.88,1.17,1.54.45,1.53.12,3.31-.85,4.52-.96,1.21-2.52,1.82-3.97,1.54l.15-3.7Z"></path><path class="cls-2" d="M375.08,31.67c-.17-1.03-.09-2.02.37-2.89.2-.38.49-.71.83-.95"></path><circle class="cls-13" cx="365.43" cy="35.27" r="1.77"></circle><path class="cls-15" d="M355.81,19.88c4.75,6.7,12.59,10.58,20.71,10.77,0,0,.02-12.46-4.06-15.61-6.07-4.69-14.58-2.97-15.57-.68-1.02,2.37-1.08,5.52-1.08,5.52Z"></path><path class="cls-15" d="M355.75,27.31s-3.91-6.79-3.52-8.54c.39-1.75,4.32-1.87,4.32-1.87l-.8,10.41Z"></path><ellipse class="cls-15" cx="382.4" cy="15.04" rx="9.6" ry="10.29" transform="translate(105.95 279.67) rotate(-46)"></ellipse><path class="cls-18" d="M378.33,61.53s-13.55,22.35-23.95,6.66c7.89-3.38,17.2-5.52,23.95-6.66Z"></path><path class="cls-13" d="M356.19,33.35c.88,0,1.59.79,1.59,1.77s-.71,1.77-1.59,1.77c-.13,0-.25-.02-.38-.06-.05-1.12-.08-2.26-.09-3.4.15-.05.3-.09.47-.09Z"></path><path class="cls-22" d="M393.5,59.4c6.76-.51,11.96.48,15.2,5.44,4.22,6.47,6.35,25.3,6.3,36.56-.05,9.99-.73,28.84-5.32,33.7-6.79,7.19-14.4,5.95-37.18-10.72l21.01-64.98Z"></path><path class="cls-13" d="M356.77,111.51s-4.09,3.45-7.31,4.43c-2.41.73-10.92,2.65-11.69,2.61-1.76-.08-2.09-1.18-1.63-1.46,1.75-1.08,8.14-3.16,8.53-3.75.39-.58,1.53-4.23,3.99-4.49s8.1,2.66,8.1,2.66Z"></path><path class="cls-18" d="M385.78,114.5s-26.1-9.7-29.55-9.7c-6.68,0-19.24,4.19-21.49,6.09-1.38,1.16-3.22,4.56-3.65,5.91-.08.26.74.93,1.77-.05.6-.57,1.66-2.04,2.39-2.89.67-.79,1.86-1.72,2.41-2.14.08-.06.2.02.16.12-.3.7-1,2.32-1.5,3.58-.59,1.49-1.36,3.31-1.53,4.3-.08.45.94.91,1.78-.34.78-1.18,3.33-6.12,4.88-7.26.64-.47,1.22-.78,1.51-.92.08-.04.17.04.14.13-.41,1.19-2.34,6.81-2.81,8.83-.07.32.76,1.22,1.69.11.93-1.1,3.56-7.55,4.73-8.05s9.54.94,9.75,1.04c.21.11,22.24,15.87,22.24,15.87l7.08-14.63Z"></path><path class="cls-15" d="M263.18,72.92h59.3c2.38,0,4.5,1.51,5.27,3.76l15.3,44.44h-59.3c-2.38,0-4.5-1.51-5.27-3.76l-15.3-44.44Z"></path><path class="cls-15" d="M291.72,118.55h75.12c1.42,0,2.58,1.15,2.58,2.58h-77.7v-2.58Z"></path><path class="cls-18" d="M328.26,127.2c3.89,3.42,5.15,15.26-.38,16.56-5.28,1.24-17.06-12.29-19.31-15.29l6.4-7.32c5.65.9,10.83,3.89,13.29,6.04Z"></path><path class="cls-18" d="M308.57,128.48s-6.68-.81-8.65-1.28c-3.47-.82-7.87-10.97-9.86-18.97,0,0,1.48-.64,2.1.74.54,1.2,3.6,6.05,3.6,6.05l-2.8-7.96s1.53-.7,2.33.71,4.92,10.08,8.07,13.22c-1.71-3.59-4.34-8.79-5.34-12.14,0,0,1.31-1.09,2.25.47,1.44,2.4,5.68,11.12,7.03,11.18,1.03.05,4.66.38,4.66.38l3.02.28-6.4,7.32Z"></path><path class="cls-3" d="M381.86,163.68c1.3,8.4,6.63,16.09,14.04,20.25"></path></g><line class="cls-6" x1="198.44" y1="54.56" x2="267.11" y2="54.56"></line><path class="cls-7" d="M248.55,136.96v6.7c0,4.96,4.02,8.97,8.97,8.97h9.6"></path><path class="cls-7" d="M326.5,42.11h-68.98c-4.96,0-8.97,4.02-8.97,8.97v31.04"></path><path class="cls-7" d="M267.12,152.64h171.1c4.96,0,8.97-4.02,8.97-8.97V51.09c0-4.96-4.02-8.97-8.97-8.97h-53.82"></path><line class="cls-7" x1="361.99" y1="405.93" x2="409.72" y2="305.79"></line><line class="cls-7" x1="490.93" y1="405.93" x2="437.79" y2="305.99"></line><line class="cls-7" x1="411.19" y1="405.93" x2="422.62" y2="305.9"></line><path class="cls-20" d="M464.92,306.18c6.28.04,11.72-4.35,12.98-10.51,2.55-12.41,6.53-32.54,7.61-42.49,1.58-14.46,2.75-33.83-9.57-37.14-11.73-3.15-30.19-2.75-39.59-.8-11.38,2.36-26.04,17.08-34.15,35.75,0,0-30.15-19.32-40.01-2.59-6.29,10.68,2.81,57.06,2.81,57.06l99.9.71Z"></path><path class="cls-14" d="M245.46,342.28l18.52,15.38s7.08-4.03,11.55-6.24c9.94-4.94-2.8,13.5-2.8,13.5l2.79,2.32s16.8-24.55,20.22-29.51l-18.22-9.55c-7.49,11.08-26.83,6.61-44.53.06-1.47-.54-2.57,1.37-1.38,2.38l13.85,11.67Z"></path><path class="cls-14" d="M321.82,406.06h14.19c2.42,0,4.54-1.68,5.1-4.04.63-2.64,1.48-6,2.24-8.29,3.5-10.63,1.07,12.34,1.07,12.34h3.23s4.79-20.91,5.49-26.91l-23.65-2.16c-4.48,14.1-7.98,20.02-21.61,25.97-1.99.87-1.39,2.96,0,2.96l13.94.15Z"></path><path class="cls-19" d="M414.59,167.08c1.31-3.69,4.5-6.38,8.36-7.06,11.83-2.08,37.7-4.08,49.86-2.71,4,.45,5.85,5.3,5.71,8.11-.1,1.93-13.6,56.09-8.22,84.21l-58.51-8.11c.95-3.79,3.62-10.3,3.45-18.17-.42-18.72-4.9-44.33-.65-56.27Z"></path><path class="cls-12" d="M325.67,376.99c5.17-23.6,11.52-79.74,16.56-105.12,1.2-6.02,2.62-13.32,18.73-13.57,27.72-.43,86.38,2.02,86.38,2.02l-6.81,34.72-68.99-1.91-18.58,87.98-27.29-4.13Z"></path><path class="cls-12" d="M411.79,241.51l58.51,8.11c3.06,12.05,3.39,25.82.71,33.52-4.6,13.22-31.51,13.08-43.75,10.64-22.42-4.48-41.43-12.65-68.59-24.2-10.24,14.61-52.35,61.53-61.02,74.31l-20.84-14.74c29.54-42.77,42.4-62,56.6-83.47,3.63-5.49,8.64-11.1,18.32-10.48,17.65,1.14,60.06,6.33,60.06,6.33Z"></path><path class="cls-19" d="M472.92,157.31c9.42.41,17.48,5.28,19.36,13.14,3.56,14.95-1.21,54.21-3.94,64.68-2.96,11.34-7.64,15.96-15.18,15.13-13.26-1.47-26.53-7.16-26.53-7.16l5.93-17.41,13.64,2.84,6.73-71.22Z"></path><path class="cls-15" d="M443.53,156.56c-2.98-2.04-8.11-4.47-8.53-10.17-.25-3.48,4.02-16.41,6.16-19.16-2.2-8.78-3.89-14.87-2.14-21.26,2.97-.68,3.88.37,3.88.37,0,0,9.25,23.25,7.82,31.58-1.43,8.34-7.2,18.63-7.2,18.63Z"></path><polygon class="cls-21" points="451.52 159.71 443.26 160.13 445.13 135.57 453.31 136.19 451.52 159.71"></polygon><path class="cls-17" d="M452.84,138.09c-1.86,2.45-7.44,5.85-8.29,5.09l-.49,6.49c7.96-2.48,8.78-11.58,8.78-11.58Z"></path><path class="cls-21" d="M442.09,144.33c6.97,2.53,15.72-6.91,16.88-20.14.66-7.55-.4-13.9-2.86-16.09-4.42-3.94-14.17-1.56-14.17-1.56-2,6.2-5.08,35.88.16,37.79Z"></path><path class="cls-16" d="M442.69,120.61l-3.71-.07s3.35-3.1,3.71.07Z"></path><path class="cls-16" d="M441.62,123.22c-.04.54-.36.96-.71.93-.35-.03-.6-.49-.56-1.03.04-.54.36-.96.71-.93s.6.49.56,1.03Z"></path><path class="cls-16" d="M446.99,120.94l5.01.31s-3.92-3.52-5.01-.31Z"></path><path class="cls-16" d="M447.94,123.7c-.04.54.21,1,.56,1.03s.67-.39.71-.93c.04-.54-.21-1-.56-1.03s-.67.39-.71.93Z"></path><path class="cls-4" d="M444.17,120.94c.51,2.14.36,4.35-.43,6.39-.13.34-.24.69-.27,1.04-.08.96.68,1.23,1.09,1.26"></path><path class="cls-4" d="M443.16,134.04c1.82-.06,3.57-1.17,4.39-2.8"></path><path class="cls-21" d="M456.7,123.27c.24-1.05.76-2.03,1.49-2.77.58-.59,1.42-1.05,2.15-.72.56.26.87.92,1.01,1.56.32,1.5-.13,3.18-1.14,4.27-1.01,1.09-2.55,1.56-3.92,1.19l.41-3.54Z"></path><path class="cls-4" d="M458.11,124.48c-.09-1,.06-1.94.56-2.74.22-.35.52-.64.87-.85"></path><path class="cls-17" d="M440.07,124.71c.79.06,1.36.87,1.29,1.81-.07.94-.77,1.65-1.55,1.59-.18-.01-.4-.11-.55-.19.05-1.04.07-2.08.15-3.13.17-.07.47-.09.66-.07Z"></path><path class="cls-17" d="M446.91,127.02c-.07.94.63,1.75,1.57,1.83s1.75-.63,1.83-1.57-.63-1.75-1.57-1.83-1.75.63-1.83,1.57Z"></path><path class="cls-21" d="M460.19,156.87s-18.68,18.64-25.2,1.55c6.61-.72,18.24-1.57,25.2-1.55Z"></path><path class="cls-15" d="M466.68,132.7c3.34-16.42,4.76-20.14-.8-24.56-7.16-4.69-17-7.38-25.54-5.58-.76,10.03,8.67,18.1,17.18,20.88.31,2.17-7.19,15.97-6.1,22.74.77,4.76,2.93,7.72,6.95,11,0,0,8.37-5.4,12.75-15.97,3.59-8.67-.14-12.38-4.44-8.52Z"></path><path class="cls-19" d="M422.95,160.02c-5.01.88-13.74,4.63-16.83,16.88-2.26,9-5.25,41.85-5.25,41.85l-6.06,20.76,16.98,2.01s5.22-18.91,6.94-30.76l4.22-50.74Z"></path><path class="cls-24" d="M435.08,228.45s-4.09,4.47-7.56,6.04c-2.59,1.17-11.87,4.57-12.74,4.64-1.98.16-2.52-1.01-2.04-1.41,1.8-1.47,8.67-4.74,9.03-5.45s1.1-4.97,3.83-5.62c2.73-.65,9.49,1.8,9.49,1.8Z"></path><path class="cls-21" d="M464.89,229.61s-27.54-9.12-31.4-8.62c-7.5.97-20.99,7.51-23.24,9.97-1.38,1.5-2.95,5.59-3.24,7.17-.05.31.96.94,1.98-.31.59-.72,1.57-2.53,2.26-3.59.64-.99,1.83-2.21,2.4-2.76.08-.08.22,0,.19.11-.24.83-.78,2.75-1.16,4.24-.44,1.76-1.04,3.92-1.09,5.05-.02.52,1.19.88,1.95-.65.71-1.44,2.84-7.35,4.42-8.87.65-.62,1.25-1.05,1.56-1.25.09-.06.19.02.17.12-.29,1.4-1.64,7.98-1.86,10.32-.04.37,1.03,1.25,1.91-.12.88-1.38,2.89-8.99,4.14-9.72,1.25-.73,10.85-.34,11.1-.25s24.69,13.18,24.69,13.18l5.22-14.03Z"></path><path class="cls-11" d="M351.6,189.01l55.26,6.82c2.22.27,4.02,1.92,4.48,4.11l9.15,43.17-55.26-6.82c-2.22-.27-4.02-1.92-4.48-4.11l-9.15-43.17Z"></path><path class="cls-11" d="M372.5,239.72h72.95v1.96h-71c-1.08,0-1.96-.88-1.96-1.96h0Z" transform="translate(785.42 529.65) rotate(-172.97)"></path><path class="cls-7" d="M416.77,183.25c-1.33,5.63.08,11.83,3.69,16.34"></path><path class="cls-20" d="M477.9,295.67c2.47-12,6.27-31.23,7.5-41.48h0c-10.68-7.07-26.52-11.07-33.63-7.07-13.19,7.4-7.27,49.55-7.09,58.92l20.24.14c6.28.04,11.72-4.35,12.98-10.51Z"></path><path class="cls-7" d="M483.52,253.01c-10.58-6.32-25.04-9.66-31.75-5.89-11.85,6.65-8.28,41.32-7.29,55.11"></path><path class="cls-20" d="M100.26,405.93v-1.09c0-.7-.2-1.39-.59-1.98l-9.21-14.18-19.26-5.66-3.29,20.34c-.03.19-.05.39-.05.58v1.99h32.4Z"></path><path class="cls-20" d="M120.66,385.58l19.12-2.57,40.8,20.01c1.46.71.95,2.9-.67,2.9h-59.58l.33-20.34Z"></path><path class="cls-8" d="M71.04,391.9c1.25,3.91,1.6,8.11,1.01,12.17"></path><polygon class="cls-24" points="192.04 115.43 196.96 130.34 179.01 137.99 169.11 116.99 192.04 115.43"></polygon><path class="cls-21" d="M179.03,130.17c-4.51,5.09,4.87,19.9,17.41,15.48,8.17-2.88,35.94-22.08,35.94-22.08l-2.95-10.9s-23.31,7.84-32.96,10.24c-3.34.83-14.7,4.17-17.44,7.26Z"></path><path class="cls-21" d="M232.73,111.5s1.94-2.27,4.25-3.48c2.31-1.21,11.92-5.09,15.46-7.91,0,0,1.3,1.34-.06,3.06-1.79,2.28-7.08,5.63-7.08,5.63,0,0,5.9.07,6.73-.06.73-.11,2.7-.51,3.57-.9-.27-1.57-.73-4.01-.73-4.98,0-2.13,2.16-2.25,2.16-2.25,0,0,.7,2.37,1.4,4.97.3-.25.61-.51.9-.76v-.03s-1.23-3.21-1.59-4.16c-.85-2.26,1.49-3.51,1.49-3.51,0,0,2.08,3.5,3.24,6.22.12-.21-.8-3.59-.85-4.41-.12-2.1,1.86-2.72,1.86-2.72,0,0,2.42,5.54,2.42,7.16,0,1.62-.38,6.62-1.31,7.44-1.21,1.43-9.1,8.68-12.05,9.6-1.24.39-12.03.98-16.37,1.62-.95.14-3.78,1.54-3.78,1.54l-2.95-10.9,3.31-1.18Z"></path><path class="cls-24" d="M266.11,97.94l-.62,3.56c-.36-1.17-.89-2.55-1.32-3.61.73-.39,1.94.05,1.94.05Z"></path><path class="cls-4" d="M255.84,112.2l-3.59,4.14s-4.33-3.59-10.66-2.28"></path><path class="cls-11" d="M192.04,115.43c-1.97-7.77-6.2-19.69-7.33-22.25-3.43-7.78-11.21-12.05-21.12-14.1l2.41,38.51,26.04-2.16Z"></path><path class="cls-10" d="M121.45,176.38c3.06,66.63,3.67,137.23-.79,209.21l26.88-1.38c8.74-52.66,19.41-135.13,24.1-201.07l-50.19-6.75Z"></path><path class="cls-10" d="M103.39,180.78c-11.35,60.81-30.08,166.07-33.04,207.46l20.57.44c18.01-56.29,45.12-144.05,61.18-208.77l-48.71.87Z"></path><path class="cls-7" d="M103.39,207.46c7.28-3.95,12.02-12.18,11.79-20.46"></path><path class="cls-16" d="M150.24,26.46c.83,2.05.58,4.56-.46,6.52-.3-1.5-.53-3.17-1.12-4.59l1.57-1.93Z"></path><path class="cls-21" d="M148.99,24.3s2.24,19.13,1.25,31.55c-.31,3.92-1.86,4.67-4.15,5.18-3.94.88-9.63-1.33-11.72-6.63-6.12-15.5-4.26-27.16.32-29.18,4.58-2.02,14.31-.92,14.31-.92Z"></path><polygon class="cls-21" points="131.04 37.98 130.64 76.27 140.4 76.32 140.47 38.06 131.04 37.98"></polygon><path class="cls-17" d="M134.89,61.5c-1.02-2.13-.91-5.68-1.13-8.05.74,2.24,2.69,7.63,6.66,7.38v4.9c-2.5-1.02-4.37-1.8-5.53-4.23Z"></path><path class="cls-16" d="M143.96,38.6l-4.02.3s2.49-3.79,4.02-.3Z"></path><path class="cls-16" d="M147.42,38.34l2.98-.22s-1.87-3.24-2.98.22Z"></path><path class="cls-4" d="M146.4,40.89c.02,1.06.21,2.12.58,3.12.22.59.5,1.16.62,1.77.12.61-.36,1.39-.82,1.85"></path><path class="cls-16" d="M143.68,40.65c.03.43-.24.8-.61.82-.37.03-.7-.3-.73-.72s.24-.8.61-.82c.37-.03.7.3.73.72Z"></path><path class="cls-16" d="M149.66,40.2c.03.43-.21.79-.55.82-.33.02-.63-.3-.66-.73-.03-.43.21-.79.55-.82s.63.3.66.73Z"></path><path class="cls-16" d="M134.55,28.51s2.83,5.25,2.03,6.67c-.5.89-1.95,1.82-1.95,1.82l.08,5.12-3.77,7.61s-3.17-14.05-3.26-18.66c-.08-3.83-.98-8.5,6.9-8.92,13.1-.7,16.58,3.62,16.58,3.62,0,0-.78,3.14-8.46,3.87-5.13.49-8.13-1.13-8.13-1.13Z"></path><path class="cls-16" d="M151.15,61.63s-13.3,2.99-16.47-4.33c-1.61-3.71-1.52-15.11-1.52-15.11l1.55-.08c.15,8.31.18,9.17,5.13,11.62.36-2.74,1.71-5.71,9.43-4.77.71.09,1.6.7,1.76,2.2.46,4.33.12,10.46.12,10.46Z"></path><path class="cls-4" d="M148.18,53.14c-2.05.7-4.03.41-5.43-.96"></path><path class="cls-4" d="M139.33,42.8c1.03.89,4.41.65,5.3-.38.61-.7,1.06-2.92.36-3.52-1.03-.89-5.27-1.05-6.15-.02-.61.7-.21,3.31.49,3.92Z"></path><path class="cls-4" d="M152.08,42.04c-.61,1.01-2.79.98-3.54.07-.52-.62-1.12-2.76-.7-3.44.61-1.01,3.61-1.49,4.36-.58.52.62.3,3.26-.12,3.95Z"></path><line class="cls-4" x1="147.6" y1="39.8" x2="145.36" y2="39.97"></line><line class="cls-4" x1="138.54" y1="39.17" x2="133.77" y2="39.36"></line><path class="cls-21" d="M130.53,40.2c-.98-.47-2.38-.21-3.13.72-.6.75-.63,1.81-.44,2.71.58,2.74,3.51,4.75,6.24,4.84,0,0,.78-6.6-2.68-8.27Z"></path><path class="cls-4" d="M131.14,45.62c.39-.97.31-2.1-.22-2.92-.26-.41-.63-.73-1.06-.95"></path><path class="cls-11" d="M103.39,180.78c2.71-22.72,1.52-40.44.56-54.4-.83-12.08-4.66-34.63-6.81-46.76-.83-4.64,2.48-8.99,7.17-9.44,21.08-2.04,48.09,3.04,67.47,11.34,2.98,1.28,1.35,3.49,1.64,6.72,2.44,27.7,1.82,48.4-1.77,94.88l-68.24-2.35Z"></path><path class="cls-11" d="M108.83,69.84s-22.45-.78-25.66,9.29c-3.21,10.08,6.19,39,6.19,39l16.07-4.81,3.41-42.89v-.59Z"></path><path class="cls-21" d="M116.01,62.42s-26.42,39.32-27.27,48.05c-1.41,14.4,9.73,17.61,15.21,15.91,5.18-1.61,22.25-60.24,22.25-60.24l-10.19-3.71Z"></path><path class="cls-24" d="M126.81,64.41s5.15-10.26,5.84-11.76c.69-1.5,3.94-10.51,3.99-11.09.15-1.56-1.17-1.63-1.17-1.63l-5.62,8.18-3.04-1.67s2.04-5.67,2.26-5.89c.22-.22,5.9-2.2,6.7-2.96.8-.76.42-2.03.42-2.03l-9.93,3.1-5.72,6.23,6.26,19.52Z"></path><path class="cls-24" d="M127.46,39.42l9.82,1.1s.2,1.69-1.24,1.97c-1.44.28-9.25.11-9.25.11l.68-3.17Z"></path><path class="cls-21" d="M116.01,62.42s2.24-3.26,2.57-4.9c.59-2.93,1.36-12.08,1.63-12.81.27-.73,5.21-6.33,6.05-6.06.83.26,8.19,3.57,8.19,3.57,0,0-.16,1.41-1.54,1.43-1.39.03-6.53-1.13-6.53-1.13l-2.87,3.36s5.18,6.72,5.49,9.48c.25,2.24-2.8,10.77-2.8,10.77l-10.19-3.71Z"></path><path class="cls-21" d="M121.09,69.93c10.94,8.47,20.77,15.01,20.77,15.01,0,0,5.15-5.86,8.44-10.51-7.37-1.93-18.2-4.14-29.21-4.5Z"></path><path class="cls-4" d="M95.67,121.41c1.26,1.58,2.74,2.03,4.41,2.33"></path><path class="cls-7" d="M105.85,341.33c8.96-27.06,26.86-87.4,41.54-142.93"></path><line class="cls-7" x1="199.29" y1="168.99" x2="255.4" y2="168.99"></line><line class="cls-7" x1="45.61" y1="337.86" x2="93.12" y2="337.86"></line><line class="cls-7" x1=".56" y1="405.93" x2="227.34" y2="405.93"></line><line class="cls-7" x1="373.33" y1="405.93" x2="548.77" y2="405.93"></line><line class="cls-7" x1="239.71" y1="405.93" x2="367.58" y2="405.93"></line></svg>